<?xml version="1.0" encoding="UTF-8" standalone="no"?>
<svg
   version="1.1"
   id="Layer_1"
   x="0px"
   y="0px"
   width="256"
   viewBox="0 0 256 256"
   enable-background="new 0 0 1024 752"
   xml:space="preserve"
   height="256"
   xmlns="http://www.w3.org/2000/svg"
   xmlns:svg="http://www.w3.org/2000/svg"><defs
   id="defs2" />
<rect
   style="fill:#342c27;fill-opacity:1;stroke:#28231f;stroke-width:10;stroke-dasharray:none;stroke-opacity:1"
   id="rect1"
   width="243.45848"
   height="243.4585"
   x="6.2707596"
   y="6.270752"
   rx="9.8478661" /><g
   id="g2"
   transform="matrix(0.56102942,0,0,0.56102942,-154.06149,-87.760763)"
   style="fill:#cac1ba;fill-opacity:1"><path
     fill="#000000"
     opacity="1"
     stroke="none"
     d="m 534.14447,583.34833 c -78.021,5.95038 -139.53326,-22.61481 -182.09,-87.79434 -31.47183,-48.20206 -36.82223,-101.11902 -21.74453,-156.11915 0.54083,-0.10555 1.08163,-0.21112 1.62246,-0.31668 0.4787,1.83011 0.96726,3.65766 1.43445,5.49073 2.54053,9.9685 6.63123,19.22296 13.23926,27.1622 2.20831,2.65313 2.95413,5.30792 2.76254,8.66388 -1.14511,20.0592 -0.0959,39.92044 5.82807,59.29751 0.58429,1.91129 1.00271,3.86417 2.41668,5.3407 0.37784,0.0783 0.78058,0.3038 0.99576,0.18616 20.5936,-11.25794 41.75897,-21.61002 59.85468,-36.88608 2.40008,-2.02612 6.94326,-3.23267 5.35836,-7.86139 -1.88589,-5.50757 -6.20172,-7.81619 -12.06777,-7.00812 -34.31067,4.72623 -65.59437,-16.52127 -73.4878,-50.24469 -4.00769,-17.12228 -1.15082,-33.39132 7.64343,-48.59939 0.77775,-1.34491 1.29615,-3.14197 3.83631,-3.28794 2.73031,26.66153 16.49481,45.12757 41.59125,54.88636 -14.32264,-7.57883 -24.4805,-18.96524 -30.29294,-34.03107 -5.88745,-15.26016 -5.36197,-30.5152 0.46075,-45.80771 8.42826,-22.13542 32.79141,-37.01434 45.52884,-36.43533 -0.67468,7.03343 -3.72903,13.67349 -3.49921,20.82129 2.53803,-15.23726 8.98572,-28.65856 19.45215,-39.86597 18.05362,-19.33174 40.28156,-27.73744 66.88526,-25.55968 30.13382,2.46677 63.67715,25.66166 70.0021,66.92014 2.29181,14.94966 0.10498,29.47264 -5.73364,43.48836 -1.98358,4.76165 -6.15417,3.69174 -9.93536,4.8439 5.85211,-0.89642 7.51269,3.44455 10.25579,7.03351 4.42139,5.7847 6.7638,11.54754 4.11066,18.75573 -0.84479,2.29526 0.27649,4.23777 2.42023,5.44974 3.47503,1.96457 6.91778,3.99356 10.45758,5.83505 11.05078,5.74903 15.15234,18.133 9.55798,29.49412 1.53369,1.82247 3.25012,3.60995 4.66962,5.6083 2.09326,2.94681 3.44293,5.46814 -0.11316,9.02591 -3.26886,3.27045 -1.43378,7.94888 0.2431,11.7757 4.06995,9.2883 10.25104,17.03173 17.57911,24.03186 3.70495,3.53915 7.67144,5.9812 12.46527,7.83654 10.93249,4.23115 18.39862,12.35608 23.07165,23.03711 0.90991,2.07969 2.07141,4.20337 1.22797,6.98645 -4.26752,0.40076 -8.37836,-1.9356 -12.93329,-0.92617 4.95715,1.24328 9.95343,1.49673 14.51318,3.64672 4.72937,2.23002 9.01508,5.01227 12.80506,8.58619 3.93359,3.70932 6.90838,8.09247 9.13177,13.00702 2.13709,4.72369 3.71057,9.6409 4.74738,14.70391 1.02459,5.00336 1.79699,10.05835 2.12201,15.49344 -6.08381,-7.1983 -12.06611,-14.29214 -21.03626,-17.89346 2.75018,2.07153 5.57294,4.05469 8.23071,6.23865 2.8739,2.36142 4.88233,5.48639 6.63971,8.70035 7.60877,13.915 9.47284,27.91439 0.40436,42.0339 -3.83484,5.97083 -6.54425,12.3385 -5.32794,20.70825 -27.28436,-4.46484 -51.80914,-13.63788 -75.10761,-26.43335 -23.45868,-12.88342 -43.39611,-30.19647 -62.24414,-48.89221 22.07074,28.66644 49.79017,50.20233 83.11011,65.39899 -21.84943,13.35803 -45.51721,20.51318 -71.06195,23.47406 M 413.1181,463.51169 c 9.8104,23.19818 17.31787,47.13785 22.77478,71.70883 0.73475,3.30847 2.23996,5.16888 5.20392,6.59198 17.73703,8.51636 36.40341,13.73474 55.93463,15.72174 4.65683,0.47369 9.48645,0.95459 14.02021,0.0113 0.71533,-2.55121 -0.24997,-4.22296 -0.8368,-5.89502 -8.31491,-23.69079 -19.57388,-45.91842 -33.26757,-66.94537 -1.56489,-2.40289 -3.60474,-3.69766 -6.2309,-4.60562 -26.73544,-9.24292 -47.94867,-25.67356 -63.62109,-49.21893 -1.70838,-2.5665 -3.23133,-4.67112 -6.73825,-2.55564 -3.66819,2.21277 -1.3379,4.63507 -0.34107,6.84149 4.18054,9.25364 8.50784,18.44095 13.10214,28.34519 M 552.47186,314.51681 c -2.69134,-5.19393 -5.50763,-9.20831 -12.82617,-8.28985 -16.82178,2.11102 -32.45651,6.98624 -46.72278,16.29123 -3.5278,2.30096 -4.50781,4.66382 -3.3118,8.65188 4.51581,15.05796 13.36802,26.64267 26.91886,34.64249 12.89862,7.61475 21.64868,18.54749 26.06976,32.88294 0.95654,3.10168 1.75061,6.25348 2.61951,9.3822 0.18249,-7.10694 -0.607,-13.96256 -3.48718,-20.48139 -3.58136,-8.10589 -3.13959,-9.68188 3.73028,-15.52408 1.01325,-0.86172 2.06525,-1.70831 3.20447,-2.38491 2.27875,-1.35337 3.6936,-2.73392 3.20538,-5.92166 -0.52154,-3.40531 1.30066,-5.30457 4.76605,-6.61139 -1.46075,7.11425 -1.44824,7.15484 5.57526,4.99063 3.87183,-1.19306 7.81763,-1.76575 11.83246,-1.44937 3.97369,0.31317 5.10107,-1.6912 4.53705,-5.1457 -0.93781,-5.74453 -3.72608,-10.26019 -8.98847,-13.07366 -3.96386,-2.11921 -7.94299,-4.21735 -11.82269,-6.4834 -2.03992,-1.1915 -3.59643,-1.52094 -5.86859,-0.0547 -4.92853,3.18069 -8.59198,2.80063 -12.48151,-1.42673 -2.333,-2.53567 -4.33551,-2.40304 -7.01025,-1.07751 -5.71033,2.82989 -11.01215,6.21045 -15.63825,10.63608 -0.91021,0.87075 -1.5899,2.75845 -3.51739,1.59475 -0.0444,-1.58133 1.04968,-2.50158 1.81659,-3.54049 8.38275,-11.35608 19.29352,-19.15177 32.76532,-23.45713 1.86011,-0.59445 5.05591,0.0325 4.63409,-4.15027 m -96.11844,124.61774 c 9.73023,6.52731 19.75086,12.36185 32.5224,14.24661 -1.05951,-2.70782 -1.6354,-4.42157 -2.38488,-6.05563 -4.64991,-10.13782 -8.45523,-20.58478 -11.86319,-31.20184 -2.57907,-8.03488 -4.02268,-16.10623 -2.41657,-24.49863 0.2858,-1.49335 -0.0324,-2.61551 -1.10882,-3.57535 -5.84589,-5.21246 -10.91828,-11.05365 -14.51239,-19.10736 -8.39371,11.43881 -19.3725,18.11417 -31.60145,23.86222 5.67841,7.68307 11.18314,14.92987 13.1818,23.4866 2.46609,10.55801 9.36789,16.82077 18.1831,22.84338 M 565.1731,549.75824 c 1.63269,-0.92236 3.99572,-0.63513 5.13122,-3.3941 -16.07477,-10.75605 -30.56689,-23.4878 -44.42602,-37.13645 5.98706,14.14688 11.53943,28.3107 16.2113,42.80209 1.11365,3.45441 3.70605,3.03235 6.06103,2.46631 5.47968,-1.31695 10.87787,-2.97284 17.02247,-4.73785 M 469.05646,345.81555 c -6.22129,0.38462 -8.72614,2.59256 -9.62296,8.48236 -1.42505,9.35852 5.83347,23.6865 15.27225,29.08768 3.25003,-12.03879 3.228,-23.58951 -1.32901,-35.04263 -0.60443,-1.51898 -2.12344,-2.00174 -4.32028,-2.52741 m 100.29712,38.27817 c -2.71308,2.03906 -5.47864,4.03525 -6.91358,8.24527 3.40595,-1.71259 6.04059,-3.06662 8.70239,-4.36514 1.68476,-0.82184 1.92194,-2.27863 1.52357,-3.79386 -0.51044,-1.94153 -1.75025,-0.78604 -3.31238,-0.0863 z"
     id="path1"
     style="fill:#cac1ba;fill-opacity:1" /><path
     fill="#000000"
     opacity="1"
     stroke="none"
     d="m 660.12836,320.78369 c -20.67047,-39.5939 -51.60651,-66.93439 -93.43061,-81.72653 -3.58166,-1.26676 -5.79693,-2.97495 -7.1582,-6.72099 -2.68359,-7.38491 -6.83813,-14.05103 -11.74805,-20.22385 -1.10101,-1.38422 -2.67736,-2.5291 -2.95007,-5.47862 16.1062,2.18673 31.12488,6.95256 45.59821,13.43355 39.85089,17.84471 70.14312,46.11289 90.88482,84.49971 36.85852,68.21423 23.22907,147.46591 -6.9657,189.5816 -2.06518,-2.2504 -1.97283,-5.25748 -2.82843,-7.8811 -1.97454,-6.05491 -4.22155,-11.99106 -8.27435,-16.96076 -2.03601,-2.49667 -1.81244,-4.56372 -0.56512,-7.2594 9.71631,-20.99847 14.57623,-43.21557 14.80719,-66.23938 0.26245,-26.17025 -5.34394,-51.20575 -17.36969,-75.02423 z"
     id="path2"
     style="fill:#cac1ba;fill-opacity:1" /></g>
</svg>
